REM DIRINDEX 1\5,1\2\6,1\2\7,1\3\8,1\3\9,1\4\10,1\4\11,1\4\12
REM DIRNAME cjc026,folder01,folder02,folder03,folder04,folder05,folder06,folder07,folder08,folder09,folder10,folder11
TITLE ""
FILE "EJE_DB3000_5th_2A_34.mp3" MP3
  TRACK 01 AUDIO
    TITLE "0:"
    INDEX 01 00:00:00
  TRACK 02 AUDIO
    TITLE "10:cjc026_07833"
    INDEX 01 00:00:08
  TRACK 03 AUDIO
    TITLE "0:"
    INDEX 01 00:01:22
  TRACK 04 AUDIO
    TITLE "11:cjc026_07834"
    INDEX 01 00:01:60
  TRACK 05 AUDIO
    TITLE "0:"
    INDEX 01 00:03:36
  TRACK 06 AUDIO
    TITLE "12:cjc026_07835"
    INDEX 01 00:03:69
  TRACK 07 AUDIO
    TITLE "0:"
    INDEX 01 00:05:11
  TRACK 08 AUDIO
    TITLE "10:cjc026_07836"
    INDEX 01 00:05:48
  TRACK 09 AUDIO
    TITLE "0:"
    INDEX 01 00:06:71
  TRACK 10 AUDIO
    TITLE "11:cjc026_07837"
    INDEX 01 00:07:31
  TRACK 11 AUDIO
    TITLE "0:"
    INDEX 01 00:08:45
  TRACK 12 AUDIO
    TITLE "12:cjc026_07838"
    INDEX 01 00:09:08
  TRACK 13 AUDIO
    TITLE "0:"
    INDEX 01 00:10:30
  TRACK 14 AUDIO
    TITLE "10:cjc026_07839"
    INDEX 01 00:10:65
  TRACK 15 AUDIO
    TITLE "0:"
    INDEX 01 00:12:12
  TRACK 16 AUDIO
    TITLE "11:cjc026_07840"
    INDEX 01 00:12:47
  TRACK 17 AUDIO
    TITLE "0:"
    INDEX 01 00:14:08
  TRACK 18 AUDIO
    TITLE "12:cjc026_07841"
    INDEX 01 00:14:40
  TRACK 19 AUDIO
    TITLE "0:"
    INDEX 01 00:15:65
  TRACK 20 AUDIO
    TITLE "10:cjc026_07842"
    INDEX 01 00:16:23
  TRACK 21 AUDIO
    TITLE "0:"
    INDEX 01 00:17:61
  TRACK 22 AUDIO
    TITLE "11:cjc026_07843"
    INDEX 01 00:18:21
  TRACK 23 AUDIO
    TITLE "0:"
    INDEX 01 00:19:65
  TRACK 24 AUDIO
    TITLE "12:cjc026_07844"
    INDEX 01 00:20:25
  TRACK 25 AUDIO
    TITLE "0:"
    INDEX 01 00:21:63
  TRACK 26 AUDIO
    TITLE "10:cjc026_07845"
    INDEX 01 00:22:21
  TRACK 27 AUDIO
    TITLE "0:"
    INDEX 01 00:23:62
  TRACK 28 AUDIO
    TITLE "11:cjc026_07846"
    INDEX 01 00:24:22
  TRACK 29 AUDIO
    TITLE "0:"
    INDEX 01 00:25:52
  TRACK 30 AUDIO
    TITLE "12:cjc026_07847"
    INDEX 01 00:26:12
  TRACK 31 AUDIO
    TITLE "0:"
    INDEX 01 00:27:54
  TRACK 32 AUDIO
    TITLE "10:cjc026_07848"
    INDEX 01 00:28:16
  TRACK 33 AUDIO
    TITLE "0:"
    INDEX 01 00:29:33
  TRACK 34 AUDIO
    TITLE "11:cjc026_07849"
    INDEX 01 00:29:71
  TRACK 35 AUDIO
    TITLE "0:"
    INDEX 01 00:31:37
  TRACK 36 AUDIO
    TITLE "12:cjc026_07850"
    INDEX 01 00:32:00
  TRACK 37 AUDIO
    TITLE "0:"
    INDEX 01 00:33:14
  TRACK 38 AUDIO
    TITLE "10:cjc026_07851"
    INDEX 01 00:33:52
  TRACK 39 AUDIO
    TITLE "0:"
    INDEX 01 00:35:07
  TRACK 40 AUDIO
    TITLE "11:cjc026_07852"
    INDEX 01 00:35:45
  TRACK 41 AUDIO
    TITLE "0:"
    INDEX 01 00:37:03
  TRACK 42 AUDIO
    TITLE "12:cjc026_07853"
    INDEX 01 00:37:38
  TRACK 43 AUDIO
    TITLE "0:"
    INDEX 01 00:38:71
  TRACK 44 AUDIO
    TITLE "10:cjc026_07854"
    INDEX 01 00:39:31
  TRACK 45 AUDIO
    TITLE "0:"
    INDEX 01 00:40:40
  TRACK 46 AUDIO
    TITLE "11:cjc026_07855"
    INDEX 01 00:40:72
  TRACK 47 AUDIO
    TITLE "0:"
    INDEX 01 00:42:27
  TRACK 48 AUDIO
    TITLE "12:cjc026_07856"
    INDEX 01 00:42:65
  TRACK 49 AUDIO
    TITLE "0:"
    INDEX 01 00:43:71
  TRACK 50 AUDIO
    TITLE "10:cjc026_07857"
    INDEX 01 00:44:31
  TRACK 51 AUDIO
    TITLE "0:"
    INDEX 01 00:45:48
  TRACK 52 AUDIO
    TITLE "11:cjc026_07858"
    INDEX 01 00:46:11
  TRACK 53 AUDIO
    TITLE "0:"
    INDEX 01 00:47:25
  TRACK 54 AUDIO
    TITLE "12:cjc026_07859"
    INDEX 01 00:47:60
  TRACK 55 AUDIO
    TITLE "0:"
    INDEX 01 00:49:02
  TRACK 56 AUDIO
    TITLE "10:cjc026_07860"
    INDEX 01 00:49:40
  TRACK 57 AUDIO
    TITLE "0:"
    INDEX 01 00:50:57
  TRACK 58 AUDIO
    TITLE "11:cjc026_07861"
    INDEX 01 00:51:17
  TRACK 59 AUDIO
    TITLE "0:"
    INDEX 01 00:52:50
  TRACK 60 AUDIO
    TITLE "12:cjc026_07862"
    INDEX 01 00:53:07
  TRACK 61 AUDIO
    TITLE "0:"
    INDEX 01 00:54:27
  TRACK 62 AUDIO
    TITLE "10:cjc026_07863"
    INDEX 01 00:54:62
  TRACK 63 AUDIO
    TITLE "0:"
    INDEX 01 00:56:12
  TRACK 64 AUDIO
    TITLE "11:cjc026_07864"
    INDEX 01 00:56:49
  TRACK 65 AUDIO
    TITLE "0:"
    INDEX 01 00:57:66
  TRACK 66 AUDIO
    TITLE "12:cjc026_07865"
    INDEX 01 00:58:26
  TRACK 67 AUDIO
    TITLE "0:"
    INDEX 01 00:59:51
  TRACK 68 AUDIO
    TITLE "10:cjc026_07866"
    INDEX 01 01:00:14
  TRACK 69 AUDIO
    TITLE "0:"
    INDEX 01 01:01:25
  TRACK 70 AUDIO
    TITLE "11:cjc026_07867"
    INDEX 01 01:01:60
  TRACK 71 AUDIO
    TITLE "0:"
    INDEX 01 01:03:08
  TRACK 72 AUDIO
    TITLE "12:cjc026_07868"
    INDEX 01 01:03:43
  TRACK 73 AUDIO
    TITLE "0:"
    INDEX 01 01:04:54
